<?xml version="1.0" encoding="UTF-8"?>
<svg id="Ebene_2" data-name="Ebene 2" xmlns="http://www.w3.org/2000/svg" viewBox="0 0 200.99 159.8">
  <defs>
    <style>
      .cls-1 {
        fill: #000;
        stroke-width: 0px;
      }
    </style>
  </defs>
  <g id="Layer_1" data-name="Layer 1">
    <g>
      <path class="cls-1" d="M13.29,59.99h0c7.31.03,13.22,5.98,13.19,13.29v1.17c-.03,7.31-5.98,13.22-13.29,13.19h0C5.88,87.61-.03,81.66,0,74.35v-1.17c.03-7.31,5.98-13.22,13.29-13.19ZM53.8,60.13h0c7.31.03,13.22,5.98,13.19,13.29v1.17c-.03,7.31-5.98,13.22-13.29,13.19h0c-7.31-.03-13.22-5.98-13.19-13.29v-1.17c.03-7.31,5.98-13.22,13.29-13.19Z"/>
      <path class="cls-1" d="M200.99,48.77l-61.92,37.97v73.06h-23.37V30.22h23.37v30.83l49.85-31.54,12.07,19.27Z"/>
      <path class="cls-1" d="M33.44,0l49.85,31.54V.72h23.37v129.58h-23.37V57.25S21.37,19.27,21.37,19.27L33.44,0Z"/>
    </g>
  </g>
</svg>