<?xml version="1.0" encoding="UTF-8"?>
<svg id="Ebene_2" data-name="Ebene 2" xmlns="http://www.w3.org/2000/svg" viewBox="0 0 163.96 179.8">
  <defs>
    <style>
      .cls-1 {
        fill: #000;
        <!-- fill: #f90040; -->
        stroke-width: 0px;
      }
    </style>
  </defs>
  <g id="Layer_1" data-name="Layer 1">
    <g>
      <path class="cls-1" d="M139.62,68.77l-61.92,37.97v73.06h-23.37V50.22h23.37v30.83l49.85-31.54,12.07,19.27Z"/>
      <path class="cls-1" d="M85.29,19.27L23.37,57.25v73.06H0V.72h23.37v30.83L73.22,0l12.07,19.27Z"/>
      <path class="cls-1" d="M110.27,11.43h0c7.31.03,13.22,5.98,13.19,13.29v1.17c-.03,7.31-5.98,13.22-13.29,13.19h0c-7.31-.03-13.22-5.98-13.19-13.29v-1.17c.03-7.31,5.98-13.22,13.29-13.19ZM150.77,11.57h0c7.31.03,13.22,5.98,13.19,13.29v1.17c-.03,7.31-5.98,13.22-13.29,13.19h0c-7.31-.03-13.22-5.98-13.19-13.29v-1.17c.03-7.31,5.98-13.22,13.29-13.19Z"/>
    </g>
  </g>
</svg>