<?xml version="1.0" encoding="UTF-8"?>
<svg id="Ebene_2" data-name="Ebene 2" xmlns="http://www.w3.org/2000/svg" viewBox="0 0 81.13 170.32">
  <defs>
    <style>
      .cls-1 {
        fill: #000;
        <!-- fill: #feae00; -->
        stroke-width: 0px;
      }
    </style>
  </defs>
  <g id="Layer_1" data-name="Layer 1">
    <g>
      <path class="cls-1" d="M17.99,0h0c7.31.03,13.22,5.98,13.19,13.29v1.17c-.03,7.31-5.98,13.22-13.29,13.19h0c-7.31-.03-13.22-5.98-13.19-13.29v-1.17C4.73,5.88,10.68-.03,17.99,0ZM58.5.15h0c7.31.03,13.22,5.98,13.19,13.29v1.17c-.03,7.31-5.98,13.22-13.29,13.19h0c-7.31-.03-13.22-5.98-13.19-13.29v-1.17c.03-7.31,5.98-13.22,13.29-13.19Z"/>
      <path class="cls-1" d="M0,62.47v-21.42h81.13v21.49h-32.64v86.35h25.51v21.42H25.12V62.47H0Z"/>
    </g>
  </g>
</svg>