<?xml version="1.0" encoding="UTF-8"?>
<svg id="Ebene_2" data-name="Ebene 2" xmlns="http://www.w3.org/2000/svg" viewBox="0 0 133.37 129.27">
  <defs>
    <style>
      .cls-1 {
        fill: #000;
        <!-- fill: #f90040; -->
        stroke-width: 0px;
      }
    </style>
  </defs>
  <g id="Layer_1" data-name="Layer 1">
    <g>
      <path class="cls-1" d="M79.67,62.82h0c7.31.03,13.22,5.98,13.19,13.29v1.17c-.03,7.31-5.98,13.22-13.29,13.19h0c-7.31-.03-13.22-5.98-13.19-13.29v-1.17c.03-7.31,5.98-13.22,13.29-13.19ZM120.18,62.97h0c7.31.03,13.22,5.98,13.19,13.29v1.17c-.03,7.31-5.98,13.22-13.29,13.19h0c-7.31-.03-13.22-5.98-13.19-13.29v-1.17c.03-7.31,5.98-13.22,13.29-13.19Z"/>
      <path class="cls-1" d="M0,21.42V0h81.13v21.49h-32.64v86.35h25.51v21.42H25.12V21.42H0Z"/>
    </g>
  </g>
</svg>