<?xml version="1.0" encoding="UTF-8"?>
<svg id="Ebene_2" data-name="Ebene 2" xmlns="http://www.w3.org/2000/svg" viewBox="0 0 147.29 172.16">
  <defs>
    <style>
      .cls-1 {
        fill: #000;
        stroke-width: 0px;
      }
    </style>
  </defs>
  <g id="Layer_1" data-name="Layer 1">
    <g>
      <path class="cls-1" d="M73.85,0h0c7.31.03,13.22,5.98,13.19,13.29v1.17c-.03,7.31-5.98,13.22-13.29,13.19h0c-7.31-.03-13.22-5.98-13.19-13.29v-1.17C60.59,5.88,66.54-.03,73.85,0ZM114.35.15h0c7.31.03,13.22,5.98,13.19,13.29v1.17c-.03,7.31-5.98,13.22-13.29,13.19h0c-7.31-.03-13.22-5.98-13.19-13.29v-1.17c.03-7.31,5.98-13.22,13.29-13.19Z"/>
      <path class="cls-1" d="M147.29,61.13l-61.92,37.97v73.06h-23.37V42.57h23.37v30.83l49.85-31.54,12.07,19.27Z"/>
      <path class="cls-1" d="M12.07,41.86l49.85,31.54v-30.83h23.37v129.58h-23.37v-73.06S0,61.13,0,61.13l12.07-19.27Z"/>
    </g>
  </g>
</svg>