<?xml version="1.0" encoding="UTF-8"?>
<svg id="Ebene_2" data-name="Ebene 2" xmlns="http://www.w3.org/2000/svg" viewBox="0 0 805.6 142">
  <defs>
    <style>
      .cls-1 {
        fill: #000;
        <!-- fill: #f90040; -->
        <!-- fill: #feae00; -->
        stroke-width: 0px;
      }
    </style>
  </defs>
  <g id="Layer_1" data-name="Layer 1">
    <g>
      <path class="cls-1" d="M94.46,33.33V11.91h81.13v21.49h-32.64v86.35h25.51v21.42h-48.87V33.33h-25.12Z"/>
      <path class="cls-1" d="M511.81,33.33V11.91h81.13v21.49h-32.64v86.35h25.51v21.42h-48.87V33.33h-25.12Z"/>
      <path class="cls-1" d="M283.23,30.15l-61.92,37.97v73.06h-23.37V11.59h23.37v30.83l49.85-31.54,12.07,19.27Z"/>
      <path class="cls-1" d="M805.6,30.49l-62.06,37.75-.28,73.06-23.37-.09.48-129.58,23.37.09-.11,30.83,49.97-31.36,12,19.32Z"/>
      <path class="cls-1" d="M611.47,98.02l.21-56.28,23.37.09-.2,54.33c-.06,15,6.53,24.37,18.8,24.42,12.26.05,18.92-9.28,18.97-24.28l.2-54.33,23.37.09-.21,56.28c-.11,30.96-18.47,43.75-42.42,43.66-23.96-.09-42.22-13.01-42.1-43.97ZM633.84.74h0c7.31.03,13.22,5.98,13.19,13.29v1.17c-.03,7.31-5.98,13.22-13.29,13.19h0c-7.31-.03-13.22-5.98-13.19-13.29v-1.17c.03-7.31,5.98-13.22,13.29-13.19ZM674.34.89h0c7.31.03,13.22,5.98,13.19,13.29v1.17c-.03,7.31-5.98,13.22-13.29,13.19h0c-7.31-.03-13.22-5.98-13.19-13.29v-1.17c.03-7.31,5.98-13.22,13.29-13.19Z"/>
      <path class="cls-1" d="M292.83,97.36v-56.28h23.37v54.33c0,15,6.62,24.35,18.89,24.35s18.88-9.35,18.88-24.35v-54.33h23.37v56.28c0,30.96-18.31,43.82-42.25,43.82s-42.26-12.86-42.26-43.82ZM314.83,0h0c7.31,0,13.24,5.93,13.24,13.24v1.17c0,7.31-5.93,13.24-13.24,13.24h0c-7.31,0-13.24-5.93-13.24-13.24v-1.17c0-7.31,5.93-13.24,13.24-13.24ZM355.34,0h0c7.31,0,13.24,5.93,13.24,13.24v1.17c0,7.31-5.93,13.24-13.24,13.24h0c-7.31,0-13.24-5.93-13.24-13.24v-1.17c0-7.31,5.93-13.24,13.24-13.24Z"/>
      <path class="cls-1" d="M0,104.6l16.3-9.6c5.38,9.1,12.62,23.53,29.3,23.53,10.25,0,15.87-7.73,15.87-14.33,0-5.46-1.99-9.46-5.65-12.41-3.66-2.95-8.12-5.56-13.36-7.86-5.24-2.29-10.52-4.91-15.82-7.86-5.3-2.95-9.79-7.1-13.45-12.45-3.66-5.36-5.5-11.82-5.5-19.38,0-9.76,3.32-18,9.96-24.7,6.64-6.7,14.97-10.05,24.98-10.05,17.34,0,29.67,7.75,37,23.24l-17.79,10.81c-5.54-8.54-12-12.12-19.21-12.06-3.52,0-6.43,1.1-8.76,3.31-2.32,2.2-3.49,5-3.49,8.39,0,4.05,1.89,7.63,5.68,10.72s8.35,5.81,13.63,8.3c29.16,13.8,35.25,28.35,35.25,41.68,0,9.79-3.58,18.95-11.03,26.03-7.45,7.07-17.4,10.61-29.85,10.61-11.2,0-19.82-4.03-27.86-10.93-8.04-6.9-12.3-14.96-16.2-24.98Z"/>
      <path class="cls-1" d="M457.3,58l41.28-27.71-12.71-18.4-60.85,39.54V9.59h-23.37v129.58h23.37v-62.05s12.29-8.15,12.28-8.13l35.37,70h25.63l-41-81Z"/>
    </g>
  </g>
</svg>